<?xml version="1.0" encoding="UTF-8"?>
<!DOCTYPE svg PUBLIC "-//W3C//DTD SVG 1.1//EN" "http://www.w3.org/Graphics/SVG/1.1/DTD/svg11.dtd">
<!-- Creator: CorelDRAW X6 -->
<svg xmlns="http://www.w3.org/2000/svg" xml:space="preserve" width="34.75in" height="41.6667in" version="1.1" style="shape-rendering:geometricPrecision; text-rendering:geometricPrecision; image-rendering:optimizeQuality; fill-rule:evenodd; clip-rule:evenodd"
viewBox="0 0 34750 41667"
 xmlns:xlink="http://www.w3.org/1999/xlink">
 <defs>
  <style type="text/css">
   <![CDATA[
    .fil0 {fill:black;fill-rule:nonzero}
   ]]>
  </style>
 </defs>
 <g id="Layer_x0020_1">
  <metadata id="CorelCorpID_0Corel-Layer"/>
  <path class="fil0" d="M1935 14c-70,22 -174,99 -227,170 -27,36 -177,308 -333,604 -1132,2152 -1350,2568 -1363,2614 -21,69 -6,141 40,196 69,82 65,82 816,82l687 0 0 25180 14753 3 14754 3 7 743c7,742 7,743 39,794 72,116 187,121 385,18 821,-428 2898,-1523 2972,-1566 192,-112 278,-227 277,-371 -1,-176 -108,-287 -452,-468 -133,-70 -782,-411 -1443,-758 -661,-347 -1266,-665 -1346,-706 -121,-63 -156,-75 -218,-75 -79,0 -126,25 -179,96 -28,37 -28,55 -32,745l-4 708 -28679 0 3 -12170 3 -12170 743 -7c711,-7 745,-8 790,-35 70,-41 103,-109 94,-195 -6,-58 -56,-165 -284,-598 -153,-291 -405,-770 -562,-1069 -157,-299 -389,-741 -518,-986 -268,-511 -336,-626 -404,-686 -100,-88 -227,-127 -321,-98z"/>
  <path class="fil0" d="M5444 5283c-235,45 -298,61 -296,78 2,12 16,93 32,181 143,770 559,1886 1119,3000 1508,3000 3961,5910 7172,8509 1276,1032 2686,2024 4068,2860 143,87 155,97 132,113 -42,31 -463,291 -763,471 -3049,1832 -6354,3148 -9472,3770 -954,190 -1828,306 -2514,332 -192,7 -349,13 -351,13 -2,0 -2,140 0,309l3 309 243 -4c1139,-20 2853,-311 4521,-769 1636,-449 3446,-1128 5007,-1877 103,-49 281,-135 393,-189 939,-451 2368,-1256 3332,-1877l233 -150 344 192c3118,1734 6406,2922 9496,3431 753,124 1598,210 2067,210l121 0 0 -156c0,-86 4,-225 9,-310l9 -154 -278 -9c-1347,-45 -3296,-417 -5115,-976 -1937,-596 -3866,-1414 -5761,-2446 -162,-88 -294,-164 -294,-169 0,-5 17,-19 38,-31 21,-12 209,-142 419,-288 2503,-1750 4664,-3702 6391,-5771 1428,-1712 2571,-3532 3319,-5285 327,-767 571,-1516 667,-2046 16,-90 28,-167 26,-169 -2,-3 -126,-27 -275,-54 -149,-28 -285,-53 -301,-57 -28,-6 -32,1 -46,72 -103,540 -246,1012 -508,1671 -472,1191 -1148,2435 -1985,3653 -1922,2799 -4651,5431 -8010,7725l-344 235 -40 -21c-48,-25 -501,-297 -711,-427 -525,-326 -1178,-758 -1690,-1117 -3767,-2647 -6695,-5714 -8535,-8943 -755,-1324 -1336,-2732 -1519,-3681 -21,-107 -41,-198 -46,-203 -5,-5 -143,18 -307,49z"/>
  <path class="fil0" d="M6938 33563c-19,19 -22,275 -22,2608 0,2213 3,2591 19,2614 19,27 51,27 1585,27 1814,0 1604,24 1604,-183 0,-208 178,-185 -1437,-185l-1382 0 0 -2083 1136 0c865,0 1140,-4 1153,-17 11,-11 17,-69 17,-174 0,-86 -2,-159 -3,-160 -2,-2 -519,-7 -1149,-10l-1146 -7 0 -2083 1393 -3 1393 -3 13 -36c22,-58 16,-259 -9,-294l-21 -31 -1561 0c-1400,0 -1563,2 -1583,22z"/>
  <path class="fil0" d="M14190 33562c-21,20 -23,237 -23,2617 0,2397 2,2597 24,2615 25,20 294,27 340,9 23,-10 25,-61 25,-808l0 -798 801 -7c876,-7 897,-9 1178,-95 276,-85 495,-212 693,-402 239,-229 401,-539 476,-910 39,-191 35,-669 -7,-863 -156,-721 -613,-1171 -1366,-1342 -123,-28 -174,-30 -1124,-34 -906,-4 -997,-3 -1017,17zm2047 374c464,100 784,328 957,682 117,240 161,481 150,832 -13,443 -115,711 -365,961 -192,193 -355,285 -641,363l-136 37 -823 5 -823 5 0 -1450c0,-797 5,-1455 10,-1460 6,-6 360,-7 788,-3 646,6 795,11 882,29z"/>
  <path class="fil0" d="M18808 33558c-13,13 -17,615 -17,2625l0 2608 36 14c58,22 3072,18 3117,-5 33,-17 35,-24 39,-163 4,-135 2,-147 -26,-169 -28,-23 -116,-24 -1403,-24l-1374 0 0 -2083 2262 0 21 -31c25,-35 30,-236 8,-294l-14 -36 -2278 0 0 -2097 1386 0c1060,0 1390,-4 1403,-17 27,-27 23,-294 -4,-322 -20,-20 -182,-22 -1581,-22 -1194,0 -1563,4 -1576,17z"/>
  <path class="fil0" d="M23049 33572c-19,27 -22,297 -22,2608 0,2204 3,2582 19,2605 17,24 37,27 180,27 113,0 166,-5 178,-18 15,-15 19,-455 25,-2305l7 -2287 993 1326c546,729 1003,1328 1016,1330 16,3 322,-395 1021,-1330l998 -1334 7 2294 7 2294 35 18c37,20 297,19 329,-1 25,-16 26,-5218 1,-5243 -11,-11 -72,-17 -181,-17 -160,0 -165,1 -204,38 -36,34 -512,669 -1630,2177 -199,268 -365,491 -372,498 -6,6 -453,-585 -993,-1312 -540,-728 -1000,-1342 -1022,-1363 -39,-37 -44,-38 -206,-38 -156,0 -167,2 -187,31z"/>
  <path class="fil0" d="M10826 35821c-5,8 10,42 33,74 174,244 989,1413 989,1418 0,4 -232,335 -516,738 -481,682 -514,733 -491,750 33,24 314,25 378,1 37,-14 111,-112 435,-579 215,-310 398,-571 408,-581 15,-15 88,83 410,551 216,312 405,580 420,594 23,22 56,26 203,30 133,3 182,0 201,-15 24,-18 -8,-66 -491,-751 -284,-403 -514,-740 -510,-749 4,-10 235,-342 514,-740 279,-397 504,-730 500,-740 -8,-20 -374,-24 -404,-5 -10,6 -198,273 -418,593 -220,319 -406,583 -412,585 -7,2 -191,-253 -408,-567 -218,-314 -407,-582 -420,-597 -21,-22 -49,-26 -218,-26 -124,0 -197,6 -203,15z"/>
 </g>
</svg>
